# xmcd
#
# Track frame offsets: 
#        150
#        14957
#        34822
#        53450
#        68430
#        81962
#        105087
#        124775
#        139107
#        159932
#
# Disc length: 2278 seconds
#
# Revision: 0
# Processed by: cddbd v1.5.2PL0 Copyright (c) Steve Scherf et al.
# Submitted via: ExactAudioCopy v0.99pb4
#
DISCID=7508e40a
DTITLE=Various Artist - Super Black Blues vol.II
DYEAR=2002
DGENRE=Blues
TTITLE0=Honey Hush
TTITLE1=Yakety Yak
TTITLE2=Cleanhead Blues
TTITLE3=I Had a Dream
TTITLE4=Person To Person
TTITLE5=Welcome To New York
TTITLE6=Disillusion Blues
TTITLE7=Damn Nam (Ain't Goin' To Vietnam)
TTITLE8=Stormy Monday Blues
TTITLE9=Sail On
EXTD=
EXTT0=
EXTT1=
EXTT2=
EXTT3=
EXTT4=
EXTT5=
EXTT6=
EXTT7=
EXTT8=
EXTT9=
PLAYORDER=
